<svg xmlns="http://www.w3.org/2000/svg" viewBox="0 0 100 100">
  <!-- D'OH!! bootleg shock homer -->
  <!-- Cranium -->
  <path d="M 18 50 C 14 30 22 10 48 6 C 68 3 78 16 80 32 L 80 50" fill="#FFD700" stroke="#000" stroke-width="2.5"/>
  <!-- Jaw -->
  <path d="M 18 50 C 16 62 20 76 36 82 Q 52 88 66 80 C 76 74 80 62 80 50" fill="#FFD700" stroke="#000" stroke-width="2.5"/>
  <!-- Ear -->
  <ellipse cx="14" cy="48" rx="5" ry="8" fill="#FFD700" stroke="#000" stroke-width="2"/>
  <!-- HUGE shocked eyes -->
  <ellipse cx="38" cy="28" rx="16" ry="14" fill="#FFF" stroke="#000" stroke-width="2.5"/>
  <ellipse cx="62" cy="26" rx="17" ry="14" fill="#FFF" stroke="#000" stroke-width="2.5"/>
  <!-- Tiny shocked pupils -->
  <circle cx="38" cy="30" r="3" fill="#000"/>
  <circle cx="62" cy="28" r="3" fill="#000"/>
  <!-- Eyebrows way up high -->
  <path d="M 22 10 Q 38 2 53 10" fill="none" stroke="#000" stroke-width="3" stroke-linecap="round"/>
  <path d="M 45 8 Q 62 0 78 8" fill="none" stroke="#000" stroke-width="3" stroke-linecap="round"/>
  <!-- Bridge -->
  <ellipse cx="50" cy="36" rx="8" ry="5" fill="#FFD700"/>
  <!-- Big nose -->
  <ellipse cx="52" cy="46" rx="8" ry="7" fill="#FFD700" stroke="#000" stroke-width="2.5"/>
  <!-- Big O-shaped mouth -->
  <circle cx="50" cy="72" r="12" fill="#222" stroke="#000" stroke-width="2.5"/>
  <!-- 3 hairs shooting up from shock -->
  <path d="M 40 10 C 36 -8 32 -6 38 6" fill="none" stroke="#000" stroke-width="3" stroke-linecap="round"/>
  <path d="M 48 8 C 48 -10 52 -8 50 5" fill="none" stroke="#000" stroke-width="3" stroke-linecap="round"/>
  <path d="M 56 10 C 60 -6 62 -4 57 7" fill="none" stroke="#000" stroke-width="3" stroke-linecap="round"/>
  <!-- Sweat drops -->
  <ellipse cx="82" cy="20" rx="3" ry="5" fill="#87CEEB" opacity="0.7"/>
  <ellipse cx="86" cy="34" rx="2.5" ry="4" fill="#87CEEB" opacity="0.5"/>
  <ellipse cx="16" cy="18" rx="2" ry="4" fill="#87CEEB" opacity="0.6"/>
</svg>
